M48
;DRILL file {KiCad (2015-08-05 BZR 6055, Git fa29c62)-product} date 15-08-10 23:04:04
;FORMAT={-:-/ absolute / metric / decimal}
FMAT,2
METRIC,TZ
T1C0.400
T2C0.800
T3C0.813
%
G90
G05
M71
T1
X60.96Y-96.52
X62.23Y-59.69
X64.77Y-73.66
X64.77Y-88.9
X66.04Y-78.74
X66.04Y-96.52
X67.31Y-88.9
X67.31Y-92.71
X68.58Y-81.28
X76.2Y-40.64
X76.2Y-59.69
X77.47Y-31.75
X78.74Y-30.48
X78.74Y-38.1
X78.74Y-41.91
X81.28Y-35.56
X81.28Y-36.83
X81.28Y-55.88
X81.28Y-86.36
X81.28Y-88.9
X82.55Y-34.29
X82.55Y-44.45
X83.82Y-40.64
X83.82Y-41.91
X83.82Y-45.72
X83.82Y-50.8
X85.09Y-106.68
X86.36Y-43.18
X86.36Y-60.96
X86.36Y-104.14
X87.63Y-63.5
X87.63Y-102.87
X88.9Y-36.83
X88.9Y-46.99
X88.9Y-83.82
X88.9Y-85.09
X88.9Y-106.68
X90.17Y-96.52
X90.17Y-101.6
X91.44Y-38.1
X91.44Y-50.8
X91.44Y-93.98
X91.44Y-97.79
X91.44Y-99.06
X92.71Y-39.37
X92.71Y-55.88
X92.71Y-104.14
X93.98Y-54.61
X93.98Y-57.15
X93.98Y-63.5
X93.98Y-91.44
X95.25Y-54.61
X95.25Y-59.69
X95.25Y-62.23
X95.25Y-80.01
X95.25Y-101.6
X96.52Y-54.61
X96.52Y-60.96
X96.52Y-87.63
X97.79Y-54.61
X97.79Y-57.15
X99.06Y-54.61
X99.06Y-67.31
X100.33Y-54.61
X100.33Y-57.15
X100.33Y-76.2
X100.33Y-80.01
X100.33Y-83.82
X101.6Y-44.45
X101.6Y-45.72
X101.6Y-54.61
X102.87Y-54.61
X102.87Y-96.52
X102.87Y-97.79
X105.41Y-54.61
X106.68Y-54.61
X107.95Y-54.61
X107.95Y-93.98
X109.22Y-54.61
X110.49Y-54.61
X110.49Y-62.23
X111.76Y-53.34
X111.76Y-54.61
X113.03Y-54.61
X114.3Y-85.09
X114.3Y-87.63
X115.57Y-78.74
X115.57Y-86.36
T2
X49.53Y-30.48
X49.53Y-33.02
X49.53Y-35.56
X49.53Y-38.1
X49.53Y-40.64
X49.53Y-43.18
X49.53Y-45.72
X49.53Y-48.26
X49.53Y-50.8
X49.53Y-53.34
X49.53Y-55.88
X49.53Y-58.42
X49.53Y-60.96
X49.53Y-63.5
X49.53Y-66.04
X49.53Y-68.58
X49.53Y-71.12
X49.53Y-73.66
X49.53Y-76.2
X49.53Y-78.74
X49.53Y-81.28
X49.53Y-83.82
X49.53Y-86.36
X49.53Y-88.9
X49.53Y-91.44
X49.53Y-93.98
X49.53Y-96.52
X49.53Y-99.06
X49.53Y-101.6
X49.53Y-104.14
X49.53Y-106.68
X49.53Y-109.22
X72.39Y-30.48
X72.39Y-33.02
X72.39Y-35.56
X72.39Y-38.1
X72.39Y-40.64
X72.39Y-43.18
X72.39Y-45.72
X72.39Y-48.26
X72.39Y-50.8
X72.39Y-53.34
X72.39Y-55.88
X72.39Y-58.42
X72.39Y-60.96
X72.39Y-63.5
X72.39Y-66.04
X72.39Y-68.58
X72.39Y-71.12
X72.39Y-73.66
X72.39Y-76.2
X72.39Y-78.74
X72.39Y-81.28
X72.39Y-83.82
X72.39Y-86.36
X72.39Y-88.9
X72.39Y-91.44
X72.39Y-93.98
X72.39Y-96.52
X72.39Y-99.06
X72.39Y-101.6
X72.39Y-104.14
X72.39Y-106.68
X72.39Y-109.22
T3
X91.44Y-59.69
X91.44Y-62.23
X91.44Y-64.77
X91.44Y-67.31
X91.44Y-69.85
X91.44Y-72.39
X91.44Y-74.93
X91.44Y-77.47
X91.44Y-80.01
X91.44Y-82.55
X93.98Y-59.69
X93.98Y-62.23
X93.98Y-64.77
X93.98Y-67.31
X93.98Y-69.85
X93.98Y-72.39
X93.98Y-74.93
X93.98Y-77.47
X93.98Y-80.01
X93.98Y-82.55
X96.52Y-59.69
X96.52Y-62.23
X96.52Y-64.77
X96.52Y-67.31
X96.52Y-69.85
X96.52Y-72.39
X96.52Y-74.93
X96.52Y-77.47
X96.52Y-80.01
X96.52Y-82.55
X99.06Y-59.69
X99.06Y-62.23
X99.06Y-64.77
X99.06Y-77.47
X99.06Y-80.01
X99.06Y-82.55
X101.6Y-59.69
X101.6Y-62.23
X101.6Y-64.77
X101.6Y-77.47
X101.6Y-80.01
X101.6Y-82.55
X104.14Y-59.69
X104.14Y-62.23
X104.14Y-64.77
X104.14Y-77.47
X104.14Y-80.01
X104.14Y-82.55
X106.68Y-59.69
X106.68Y-62.23
X106.68Y-64.77
X106.68Y-77.47
X106.68Y-80.01
X106.68Y-82.55
X109.22Y-59.69
X109.22Y-62.23
X109.22Y-64.77
X109.22Y-67.31
X109.22Y-69.85
X109.22Y-72.39
X109.22Y-74.93
X109.22Y-77.47
X109.22Y-80.01
X109.22Y-82.55
X111.76Y-59.69
X111.76Y-62.23
X111.76Y-64.77
X111.76Y-67.31
X111.76Y-69.85
X111.76Y-72.39
X111.76Y-74.93
X111.76Y-77.47
X111.76Y-80.01
X111.76Y-82.55
X114.3Y-59.69
X114.3Y-62.23
X114.3Y-64.77
X114.3Y-67.31
X114.3Y-69.85
X114.3Y-72.39
X114.3Y-74.93
X114.3Y-77.47
X114.3Y-80.01
X114.3Y-82.55
T0
M30
